<svg width="58" height="15" viewBox="0 0 58 15" fill="none" xmlns="http://www.w3.org/2000/svg">
<path opacity="0.5" d="M13.7899 7.145C13.7899 10.8149 10.8148 13.79 7.14493 13.79C3.47504 13.79 0.5 10.8149 0.5 7.145C0.5 3.47506 3.47504 0.5 7.14493 0.5C10.8148 0.5 13.7899 3.47506 13.7899 7.145Z" stroke="#57A9FF"/>
<path d="M34.8044 7.145C34.8044 10.3507 32.2057 12.9494 29 12.9494C25.7944 12.9494 23.1957 10.3507 23.1957 7.145C23.1957 3.93931 25.7944 1.34059 29 1.34059C32.2057 1.34059 34.8044 3.93931 34.8044 7.145Z" fill="#57A9FF" stroke="#57A9FF"/>
<path opacity="0.5" d="M57.5 7.145C57.5 10.8149 54.525 13.79 50.8551 13.79C47.1852 13.79 44.2101 10.8149 44.2101 7.145C44.2101 3.47506 47.1852 0.5 50.8551 0.5C54.525 0.5 57.5 3.47506 57.5 7.145Z" stroke="#57A9FF"/>
</svg>
